# xmcd CD database file
#
# Track frame offsets:
#	150
#	32538
#	53556
#	76303
#	108569
#	132371
#	158771
#	184649
#	212641
#	240955
#
# Disc length: 3609 seconds
#
# Revision: 0
# Processed by: cddbd v1.5.1PL2 Copyright (c) Steve Scherf et al.
# Submitted via: CDex 1.51
#
DISCID=740e170a
DTITLE=Roberto Occhipinti - Yemaya
DYEAR=2005
DGENRE=Jazz
TTITLE0=Maracatres
TTITLE1=Mank
TTITLE2=Yemaya
TTITLE3=El Otro Tipo
TTITLE4=A Ilha
TTITLE5=The Shadow
TTITLE6=Herbie's Mood
TTITLE7=Bernardo's Tango
TTITLE8=Yambu (for Pancho Quinto)
TTITLE9=Data
EXTD=YEAR: 2005
EXTT0=
EXTT1=
EXTT2=
EXTT3=
EXTT4=
EXTT5=
EXTT6=
EXTT7=
EXTT8=
EXTT9=
PLAYORDER=
